<svg width="124" height="124" viewBox="0 0 124 124" fill="none" xmlns="http://www.w3.org/2000/svg">
<path fill-rule="evenodd" clip-rule="evenodd" d="M72.8098 0.938939C74.2839 1.1981 74.684 3.06038 73.4902 3.96313L28.5843 37.9206C28.1361 38.2595 27.8753 38.7909 27.8814 39.3527L28.0388 53.8794C28.0546 55.3336 29.7192 56.1503 30.879 55.2729L92.0489 8.99533C92.617 8.56549 93.389 8.51606 93.9989 8.88427C111.979 19.7391 124.001 39.4656 124.001 62C124.001 96.2417 96.2427 124 62.0007 124C58.0059 124 54.0993 123.622 50.3148 122.9C48.8557 122.622 48.4718 120.774 49.6564 119.878L94.9884 85.5825C95.4364 85.2436 95.6971 84.7123 95.6909 84.1506L95.5335 69.6459C95.5177 68.1918 93.8536 67.3751 92.6937 68.2522L31.3524 114.638C30.7784 115.072 29.9971 115.117 29.3854 114.738C11.7476 103.807 0 84.2756 0 62C0 27.7583 27.7587 0 62.0007 0C65.6877 0 69.2996 0.321833 72.8098 0.938939ZM28.8501 78.1935C28.8441 77.6317 29.1049 77.1003 29.553 76.7614L92.2699 29.3355C93.4297 28.4585 95.0939 29.2752 95.1097 30.7292L95.2671 45.2339C95.2732 45.7956 95.0125 46.3269 94.5646 46.6658L31.8477 94.1137C30.6879 94.9912 29.0234 94.1744 29.0076 92.7202L28.8501 78.1935Z" fill="black"/>
</svg>
