<svg width="437" height="124" viewBox="0 0 437 124" fill="none" xmlns="http://www.w3.org/2000/svg">
<path d="M161.392 95V32.408H175.504V83.096H200.272V95H161.392ZM229.063 96.152C225.031 96.152 221.223 95.192 217.639 93.272C214.119 91.288 211.271 88.44 209.095 84.728C206.919 80.952 205.831 76.44 205.831 71.192C205.831 65.88 206.919 61.368 209.095 57.656C211.271 53.944 214.119 51.128 217.639 49.208C221.223 47.224 225.031 46.232 229.063 46.232C233.095 46.232 236.871 47.224 240.391 49.208C243.911 51.128 246.759 53.944 248.935 57.656C251.111 61.368 252.199 65.88 252.199 71.192C252.199 76.44 251.111 80.952 248.935 84.728C246.759 88.44 243.911 91.288 240.391 93.272C236.871 95.192 233.095 96.152 229.063 96.152ZM229.063 84.728C231.943 84.728 234.119 83.512 235.591 81.08C237.063 78.584 237.799 75.288 237.799 71.192C237.799 67.032 237.063 63.736 235.591 61.304C234.119 58.872 231.943 57.656 229.063 57.656C226.119 57.656 223.911 58.872 222.439 61.304C221.031 63.736 220.327 67.032 220.327 71.192C220.327 75.288 221.031 78.584 222.439 81.08C223.911 83.512 226.119 84.728 229.063 84.728ZM261.865 95V47.384H273.385L274.345 53.528H274.729C276.713 51.544 278.825 49.848 281.065 48.44C283.305 46.968 285.993 46.232 289.129 46.232C292.521 46.232 295.241 46.936 297.289 48.344C299.401 49.688 301.065 51.64 302.281 54.2C304.393 52.024 306.633 50.168 309.001 48.632C311.369 47.032 314.121 46.232 317.257 46.232C322.377 46.232 326.121 47.96 328.489 51.416C330.921 54.808 332.137 59.48 332.137 65.432V95H318.025V67.256C318.025 63.8 317.545 61.432 316.585 60.152C315.689 58.872 314.217 58.232 312.169 58.232C309.801 58.232 307.081 59.768 304.009 62.84V95H289.897V67.256C289.897 63.8 289.417 61.432 288.457 60.152C287.561 58.872 286.089 58.232 284.041 58.232C281.673 58.232 278.985 59.768 275.977 62.84V95H261.865ZM365.49 96.152C360.946 96.152 356.85 95.16 353.202 93.176C349.554 91.192 346.674 88.344 344.562 84.632C342.45 80.92 341.394 76.44 341.394 71.192C341.394 66.008 342.45 61.56 344.562 57.848C346.738 54.136 349.554 51.288 353.01 49.304C356.466 47.256 360.082 46.232 363.858 46.232C368.402 46.232 372.146 47.256 375.09 49.304C378.098 51.288 380.338 54.008 381.81 57.464C383.346 60.856 384.114 64.728 384.114 69.08C384.114 70.296 384.05 71.512 383.922 72.728C383.794 73.88 383.666 74.744 383.538 75.32H355.026C355.666 78.776 357.106 81.336 359.346 83C361.586 84.6 364.274 85.4 367.41 85.4C370.802 85.4 374.226 84.344 377.682 82.232L382.386 90.776C379.954 92.44 377.234 93.752 374.226 94.712C371.218 95.672 368.306 96.152 365.49 96.152ZM354.93 66.008H372.114C372.114 63.384 371.474 61.24 370.194 59.576C368.978 57.848 366.962 56.984 364.146 56.984C361.97 56.984 360.018 57.752 358.29 59.288C356.562 60.76 355.442 63 354.93 66.008ZM393.865 95V47.384H405.385L406.345 53.432H406.729C408.777 51.512 411.017 49.848 413.449 48.44C415.945 46.968 418.793 46.232 421.993 46.232C427.177 46.232 430.921 47.96 433.225 51.416C435.593 54.808 436.777 59.48 436.777 65.432V95H422.665V67.256C422.665 63.8 422.185 61.432 421.225 60.152C420.329 58.872 418.857 58.232 416.809 58.232C415.017 58.232 413.481 58.648 412.201 59.48C410.921 60.248 409.513 61.368 407.977 62.84V95H393.865Z" fill="black"/>
<path fill-rule="evenodd" clip-rule="evenodd" d="M72.8098 0.938939C74.2839 1.1981 74.684 3.06038 73.4902 3.96313L28.5843 37.9206C28.1361 38.2595 27.8753 38.7909 27.8814 39.3527L28.0388 53.8794C28.0546 55.3336 29.7192 56.1503 30.879 55.2729L92.0489 8.99533C92.617 8.56549 93.389 8.51606 93.9989 8.88427C111.979 19.7391 124.001 39.4656 124.001 62C124.001 96.2417 96.2427 124 62.0007 124C58.0059 124 54.0993 123.622 50.3148 122.9C48.8557 122.622 48.4718 120.774 49.6564 119.878L94.9884 85.5825C95.4364 85.2436 95.6971 84.7123 95.6909 84.1506L95.5335 69.6459C95.5177 68.1918 93.8536 67.3751 92.6937 68.2522L31.3524 114.638C30.7784 115.072 29.9971 115.117 29.3854 114.738C11.7476 103.807 0 84.2756 0 62C0 27.7583 27.7587 0 62.0007 0C65.6877 0 69.2996 0.321833 72.8098 0.938939ZM28.8501 78.1935C28.8441 77.6317 29.1049 77.1003 29.553 76.7614L92.2699 29.3355C93.4297 28.4585 95.0939 29.2752 95.1097 30.7292L95.2671 45.2339C95.2732 45.7956 95.0125 46.3269 94.5646 46.6658L31.8477 94.1137C30.6879 94.9912 29.0234 94.1744 29.0076 92.7202L28.8501 78.1935Z" fill="black"/>
</svg>
